<svg id="Layer_1" data-name="Layer 1" xmlns="http://www.w3.org/2000/svg" xmlns:xlink="http://www.w3.org/1999/xlink" viewBox="0 0 518 106"><defs><style>.cls-1{fill:url(#New_Gradient_Swatch_2);}.cls-2{fill:url(#New_Gradient_Swatch_2-2);}.cls-3{fill:url(#New_Gradient_Swatch_2-3);}.cls-4{fill:url(#New_Gradient_Swatch_2-4);}.cls-5{fill:url(#New_Gradient_Swatch_2-5);}.cls-6{fill:url(#New_Gradient_Swatch_2-6);}.cls-7{fill:url(#New_Gradient_Swatch_2-7);}.cls-8{fill:url(#New_Gradient_Swatch_2-8);}.cls-9{fill:url(#New_Gradient_Swatch_2-9);}.cls-10{fill:url(#New_Gradient_Swatch_2-10);}.cls-11{fill:url(#New_Gradient_Swatch_2-11);}.cls-12{fill:url(#New_Gradient_Swatch_2-12);}.cls-13{fill:url(#New_Gradient_Swatch_2-13);}.cls-14{fill:url(#New_Gradient_Swatch_2-14);}.cls-15{fill:url(#New_Gradient_Swatch_2-15);}.cls-16{fill:url(#New_Gradient_Swatch_2-16);}.cls-17{fill:url(#New_Gradient_Swatch_2-17);}.cls-18{fill:url(#New_Gradient_Swatch_2-18);}.cls-19{fill:url(#New_Gradient_Swatch_2-19);}.cls-20{fill:url(#New_Gradient_Swatch_2-20);}.cls-21{fill:url(#New_Gradient_Swatch_2-21);}.cls-22{fill:url(#New_Gradient_Swatch_2-22);}.cls-23{fill:url(#New_Gradient_Swatch_2-23);}.cls-24{fill:url(#New_Gradient_Swatch_2-24);}.cls-25{fill:url(#New_Gradient_Swatch_2-25);}.cls-26{fill:url(#New_Gradient_Swatch_2-26);}.cls-27{fill:url(#New_Gradient_Swatch_2-27);}.cls-28{fill:url(#New_Gradient_Swatch_2-28);}.cls-29{fill:url(#New_Gradient_Swatch_2-29);}.cls-30{fill:url(#New_Gradient_Swatch_2-30);}.cls-31{fill:url(#New_Gradient_Swatch_2-31);}.cls-32{fill:url(#New_Gradient_Swatch_2-32);}</style><linearGradient id="New_Gradient_Swatch_2" x1="97.19" y1="53.67" x2="32.54" y2="53.67" gradientUnits="userSpaceOnUse"><stop offset="0" stop-color="#f1f1f1"/><stop offset="1" stop-color="#def9f6"/></linearGradient><linearGradient id="New_Gradient_Swatch_2-2" x1="174.42" y1="54.19" x2="124.69" y2="54.19" xlink:href="#New_Gradient_Swatch_2"/><linearGradient id="New_Gradient_Swatch_2-3" x1="261.22" y1="55.03" x2="236" y2="55.03" xlink:href="#New_Gradient_Swatch_2"/><linearGradient id="New_Gradient_Swatch_2-4" x1="225.4" y1="52.63" x2="199.12" y2="52.63" xlink:href="#New_Gradient_Swatch_2"/><linearGradient id="New_Gradient_Swatch_2-5" x1="335.1" y1="54.19" x2="285.37" y2="54.19" xlink:href="#New_Gradient_Swatch_2"/><linearGradient id="New_Gradient_Swatch_2-6" x1="403.44" y1="52.82" x2="348.97" y2="52.82" xlink:href="#New_Gradient_Swatch_2"/><linearGradient id="New_Gradient_Swatch_2-7" x1="427.78" y1="30.87" x2="426.68" y2="30.87" xlink:href="#New_Gradient_Swatch_2"/><linearGradient id="New_Gradient_Swatch_2-8" x1="427.78" y1="77.35" x2="426.68" y2="77.35" xlink:href="#New_Gradient_Swatch_2"/><linearGradient id="New_Gradient_Swatch_2-9" x1="505.49" y1="52.82" x2="451.03" y2="52.82" xlink:href="#New_Gradient_Swatch_2"/><linearGradient id="New_Gradient_Swatch_2-10" x1="35.62" y1="54.11" x2="18.84" y2="54.11" xlink:href="#New_Gradient_Swatch_2"/><linearGradient id="New_Gradient_Swatch_2-11" x1="39.78" y1="54.19" x2="26.38" y2="54.19" xlink:href="#New_Gradient_Swatch_2"/><linearGradient id="New_Gradient_Swatch_2-12" x1="146.1" y1="54.19" x2="138.86" y2="54.19" xlink:href="#New_Gradient_Swatch_2"/><linearGradient id="New_Gradient_Swatch_2-13" x1="139.41" y1="54.19" x2="125.33" y2="54.19" xlink:href="#New_Gradient_Swatch_2"/><linearGradient id="New_Gradient_Swatch_2-14" x1="236.78" y1="54.46" x2="223.38" y2="54.46" xlink:href="#New_Gradient_Swatch_2"/><linearGradient id="New_Gradient_Swatch_2-15" x1="230.08" y1="54.25" x2="213.47" y2="54.25" xlink:href="#New_Gradient_Swatch_2"/><linearGradient id="New_Gradient_Swatch_2-16" x1="392.39" y1="15.68" x2="382.9" y2="15.68" xlink:href="#New_Gradient_Swatch_2"/><linearGradient id="New_Gradient_Swatch_2-17" x1="321.35" y1="54.46" x2="304.74" y2="54.46" xlink:href="#New_Gradient_Swatch_2"/><linearGradient id="New_Gradient_Swatch_2-18" x1="434.66" y1="54.19" x2="419.79" y2="54.19" xlink:href="#New_Gradient_Swatch_2"/><linearGradient id="New_Gradient_Swatch_2-19" x1="304.74" y1="54.19" x2="297.49" y2="54.19" xlink:href="#New_Gradient_Swatch_2"/><linearGradient id="New_Gradient_Swatch_2-20" x1="298.04" y1="54.19" x2="285.92" y2="54.19" xlink:href="#New_Gradient_Swatch_2"/><linearGradient id="New_Gradient_Swatch_2-21" x1="162.71" y1="54.46" x2="146.1" y2="54.46" xlink:href="#New_Gradient_Swatch_2"/><linearGradient id="New_Gradient_Swatch_2-22" x1="483.68" y1="44.63" x2="474.19" y2="44.63" xlink:href="#New_Gradient_Swatch_2"/><linearGradient id="New_Gradient_Swatch_2-23" x1="430.75" y1="54.19" x2="423.7" y2="54.19" xlink:href="#New_Gradient_Swatch_2"/><linearGradient id="New_Gradient_Swatch_2-24" x1="308.27" y1="54.19" x2="301.21" y2="54.19" xlink:href="#New_Gradient_Swatch_2"/><linearGradient id="New_Gradient_Swatch_2-25" x1="149.63" y1="54.19" x2="142.58" y2="54.19" xlink:href="#New_Gradient_Swatch_2"/><linearGradient id="New_Gradient_Swatch_2-26" x1="128.86" y1="30.35" x2="121.81" y2="30.35" xlink:href="#New_Gradient_Swatch_2"/><linearGradient id="New_Gradient_Swatch_2-27" x1="203.2" y1="54.46" x2="196.15" y2="54.46" xlink:href="#New_Gradient_Swatch_2"/><linearGradient id="New_Gradient_Swatch_2-28" x1="308.2" y1="91.66" x2="301.14" y2="91.66" xlink:href="#New_Gradient_Swatch_2"/><linearGradient id="New_Gradient_Swatch_2-29" x1="430.75" y1="77.35" x2="423.7" y2="77.35" xlink:href="#New_Gradient_Swatch_2"/><linearGradient id="New_Gradient_Swatch_2-30" x1="482.46" y1="73.56" x2="475.4" y2="73.56" xlink:href="#New_Gradient_Swatch_2"/><linearGradient id="New_Gradient_Swatch_2-31" x1="68.69" y1="73.56" x2="61.63" y2="73.56" xlink:href="#New_Gradient_Swatch_2"/><linearGradient id="New_Gradient_Swatch_2-32" x1="394.34" y1="68.69" x2="380.94" y2="68.69" xlink:href="#New_Gradient_Swatch_2"/></defs><title>Logo-White</title><path class="cls-1" d="M67.51,92.21c-18.17,0-30.35-14-34.36-27.88l1.06-.3c3.9,13.48,15.7,27.08,33.3,27.08A38.82,38.82,0,0,0,96.09,78.25V56H76.9v-1.1H97.19V91.23h-1.1V79.88A40,40,0,0,1,67.51,92.21ZM33.62,45.14l-1.07-.23c3.77-17.54,17.63-29.79,33.7-29.79,14,0,23.49,5.45,29.09,16.66l-1,.49C89,21.48,79.76,16.22,66.25,16.22,50.7,16.22,37.28,28.12,33.62,45.14Z"/><polygon class="cls-2" points="174.42 92.21 124.69 92.21 124.69 16.18 173.47 16.18 173.47 17.28 125.79 17.28 125.79 91.11 174.42 91.11 174.42 92.21"/><polygon class="cls-3" points="261.22 93.23 236 61.6 236.86 60.91 260.12 90.09 260.12 16.84 261.22 16.84 261.22 93.23"/><polygon class="cls-4" points="200.22 91.66 199.13 91.66 199.13 13.6 225.4 46.54 224.54 47.23 200.22 16.74 200.22 91.66"/><polygon class="cls-5" points="335.1 92.21 285.38 92.21 285.38 16.18 334.15 16.18 334.15 17.28 286.47 17.28 286.47 91.11 335.1 91.11 335.1 92.21"/><path class="cls-6" d="M376.08,92.21a32.21,32.21,0,0,1-9.66-1.42,27.46,27.46,0,0,1-8-4A24.54,24.54,0,0,1,349,72.37l1.07-.25a23.44,23.44,0,0,0,9,13.76,26.37,26.37,0,0,0,7.7,3.86,31.13,31.13,0,0,0,9.33,1.37,29.51,29.51,0,0,0,10.21-1.76,28.15,28.15,0,0,0,8.38-4.79,21.9,21.9,0,0,0,5.63-7.14,20,20,0,0,0,2-9A16.5,16.5,0,0,0,400.76,61a18.11,18.11,0,0,0-4.34-5.5,30.92,30.92,0,0,0-6.39-4.2,84.37,84.37,0,0,0-7.81-3.41l-5.66-2.2-4.48-1.87a22,22,0,0,1-4.47-2.48A14.5,14.5,0,0,1,364.27,38a7.74,7.74,0,0,1-1.4-4.55H364a6.57,6.57,0,0,0,1.2,3.92,13.43,13.43,0,0,0,3.1,3.11,20.75,20.75,0,0,0,4.19,2.33L377,44.65l5.64,2.19a85.61,85.61,0,0,1,7.91,3.46,32,32,0,0,1,6.61,4.35,19.22,19.22,0,0,1,4.6,5.84,17.59,17.59,0,0,1,1.7,8,21.11,21.11,0,0,1-2.15,9.45,23,23,0,0,1-5.9,7.49,29.24,29.24,0,0,1-8.7,5A30.6,30.6,0,0,1,376.08,92.21Zm16.13-26.87a8.39,8.39,0,0,0-.65-1.38,13.39,13.39,0,0,0-3.43-3.83,23.79,23.79,0,0,0-4.91-2.87c-1.82-.8-3.7-1.6-5.76-2.43l-5.19-2c-2.49-1-4.9-2.07-7.17-3.21a29.36,29.36,0,0,1-6.05-4,17.21,17.21,0,0,1-4.15-5.3,16.17,16.17,0,0,1-1.53-7.27,16.89,16.89,0,0,1,2-8.17,19.16,19.16,0,0,1,5.41-6.21,25.94,25.94,0,0,1,7.8-3.92,30.71,30.71,0,0,1,9.21-1.37,27.91,27.91,0,0,1,13.15,3.1,23.8,23.8,0,0,1,9.37,8.81l-0.94.57a22.72,22.72,0,0,0-8.94-8.41,26.82,26.82,0,0,0-12.64-3,29.59,29.59,0,0,0-8.88,1.32,24.84,24.84,0,0,0-7.47,3.75,18.05,18.05,0,0,0-5.11,5.85,15.8,15.8,0,0,0-1.85,7.65,15.1,15.1,0,0,0,1.41,6.78,16.12,16.12,0,0,0,3.88,5,28.26,28.26,0,0,0,5.83,3.8c2.24,1.12,4.63,2.18,7.08,3.17l5.19,2c2.07,0.84,4,1.64,5.8,2.45a24.85,24.85,0,0,1,5.14,3,14.67,14.67,0,0,1,3.7,4.14,9.41,9.41,0,0,1,.74,1.56Z"/><rect class="cls-7" x="426.68" y="16.84" width="1.1" height="28.07"/><rect class="cls-8" x="426.68" y="63.05" width="1.1" height="28.61"/><path class="cls-9" d="M478.14,92.21a32.21,32.21,0,0,1-9.66-1.42,27.46,27.46,0,0,1-8-4A24.54,24.54,0,0,1,451,72.37l1.07-.25a23.44,23.44,0,0,0,9,13.76,26.36,26.36,0,0,0,7.7,3.86,31.12,31.12,0,0,0,9.33,1.37,29.51,29.51,0,0,0,10.21-1.76,28.15,28.15,0,0,0,8.38-4.79,21.9,21.9,0,0,0,5.63-7.14,20,20,0,0,0,2-9A16.5,16.5,0,0,0,502.81,61a18.11,18.11,0,0,0-4.34-5.5,31,31,0,0,0-6.39-4.2,84.47,84.47,0,0,0-7.81-3.41l-5.66-2.2-4.54-1.89a21.84,21.84,0,0,1-4.41-2.45A14.5,14.5,0,0,1,466.33,38a7.74,7.74,0,0,1-1.4-4.55H466a6.57,6.57,0,0,0,1.2,3.92,13.43,13.43,0,0,0,3.1,3.11,20.75,20.75,0,0,0,4.19,2.33L479,44.65l5.64,2.19a85.52,85.52,0,0,1,7.91,3.46,32,32,0,0,1,6.61,4.35,19.22,19.22,0,0,1,4.6,5.84,17.59,17.59,0,0,1,1.7,8,21.11,21.11,0,0,1-2.15,9.45,23,23,0,0,1-5.9,7.5,29.24,29.24,0,0,1-8.7,5A30.61,30.61,0,0,1,478.14,92.21Zm16.13-26.87a8.39,8.39,0,0,0-.65-1.38,13.38,13.38,0,0,0-3.43-3.83,23.75,23.75,0,0,0-4.91-2.87c-1.83-.81-3.71-1.61-5.76-2.43l-5.19-2c-2.49-1-4.9-2.07-7.17-3.21a29.36,29.36,0,0,1-6.05-4,17.21,17.21,0,0,1-4.15-5.3,16.17,16.17,0,0,1-1.53-7.27,16.89,16.89,0,0,1,2-8.17,19.16,19.16,0,0,1,5.41-6.21,25.92,25.92,0,0,1,7.8-3.92,30.71,30.71,0,0,1,9.21-1.37A27.91,27.91,0,0,1,493,16.54a23.81,23.81,0,0,1,9.37,8.81l-0.94.57a22.73,22.73,0,0,0-8.94-8.41,26.82,26.82,0,0,0-12.64-3A29.59,29.59,0,0,0,471,15.86a24.83,24.83,0,0,0-7.47,3.75,18.05,18.05,0,0,0-5.11,5.85,15.8,15.8,0,0,0-1.85,7.65,15.1,15.1,0,0,0,1.41,6.78,16.12,16.12,0,0,0,3.88,5,28.26,28.26,0,0,0,5.83,3.8c2.24,1.12,4.63,2.18,7.08,3.17l5.19,2c2.06,0.84,4,1.64,5.8,2.45a24.86,24.86,0,0,1,5.14,3,14.66,14.66,0,0,1,3.7,4.14A9.41,9.41,0,0,1,495.3,65Z"/><path class="cls-10" d="M35.44,70.72a16.61,16.61,0,0,1-.18-33.22v1.1a15.51,15.51,0,0,0,.16,31h0.17v1.1H35.44Z"/><circle class="cls-11" cx="33.08" cy="54.19" r="6.7"/><path class="cls-12" d="M146.1,61.44a7.25,7.25,0,0,1,0-14.5V48a6.15,6.15,0,0,0,0,12.3v1.1Z"/><rect class="cls-13" x="125.33" y="53.64" width="14.07" height="1.1"/><circle class="cls-14" cx="230.08" cy="54.46" r="6.7"/><path class="cls-15" d="M230.08,70.86a16.61,16.61,0,1,1,0-33.22v1.1a15.51,15.51,0,1,0,0,31v1.1Z"/><circle class="cls-16" cx="387.64" cy="15.68" r="4.75"/><path class="cls-17" d="M304.74,71.07V70a15.51,15.51,0,0,0,0-31v-1.1A16.61,16.61,0,0,1,304.74,71.07Z"/><path class="cls-18" d="M427.23,61.63a7.43,7.43,0,1,1,7.43-7.43A7.44,7.44,0,0,1,427.23,61.63Zm0-13.4a6,6,0,1,0,6,6A6,6,0,0,0,427.23,48.23Z"/><path class="cls-19" d="M304.74,61.44a7.25,7.25,0,1,1,0-14.5V48a6.15,6.15,0,1,0,0,12.3v1.1Z"/><rect class="cls-20" x="285.92" y="53.64" width="12.12" height="1.1"/><path class="cls-21" d="M146.1,71.07V70a15.51,15.51,0,0,0,0-31v-1.1A16.61,16.61,0,1,1,146.1,71.07Z"/><circle class="cls-22" cx="478.93" cy="44.63" r="4.75"/><circle class="cls-23" cx="427.23" cy="54.19" r="3.53"/><circle class="cls-24" cx="304.74" cy="54.19" r="3.53"/><circle class="cls-25" cx="146.1" cy="54.19" r="3.53"/><circle class="cls-26" cx="125.33" cy="30.35" r="3.53"/><circle class="cls-27" cx="199.67" cy="54.46" r="3.53"/><circle class="cls-28" cx="304.67" cy="91.66" r="3.53"/><circle class="cls-29" cx="427.23" cy="77.35" r="3.53"/><circle class="cls-30" cx="478.93" cy="73.56" r="3.53"/><circle class="cls-31" cx="65.16" cy="73.56" r="3.53"/><circle class="cls-32" cx="387.64" cy="68.69" r="6.7"/></svg>